<?xml version="1.0" encoding="utf-8"?>
<!-- Generator: Adobe Illustrator 16.0.0, SVG Export Plug-In . SVG Version: 6.00 Build 0)  -->
<!DOCTYPE svg PUBLIC "-//W3C//DTD SVG 1.1//EN" "http://www.w3.org/Graphics/SVG/1.1/DTD/svg11.dtd">
<svg version="1.1" id="Layer_1" xmlns="http://www.w3.org/2000/svg" xmlns:xlink="http://www.w3.org/1999/xlink" x="0px" y="0px"
	 width="32px" height="32px" viewBox="0 0 32 32" enable-background="new 0 0 32 32" xml:space="preserve">
<g>
	<path fill="#FFFFFF" d="M30.434,14.914L17.336,1.815c-0.754-0.754-1.978-0.754-2.732,0l-2.72,2.72l3.45,3.45
		c0.802-0.271,1.721-0.089,2.359,0.55c0.643,0.643,0.824,1.57,0.547,2.375l3.324,3.325c0.805-0.277,1.732-0.098,2.375,0.545
		c0.898,0.898,0.898,2.353,0,3.251s-2.354,0.898-3.252,0c-0.676-0.676-0.842-1.668-0.5-2.5l-3.102-3.102v8.161
		c0.219,0.109,0.426,0.254,0.607,0.436c0.898,0.898,0.898,2.354,0,3.252c-0.896,0.896-2.353,0.896-3.25,0
		c-0.898-0.898-0.898-2.354,0-3.252c0.222-0.223,0.479-0.389,0.753-0.502v-8.237c-0.274-0.112-0.53-0.278-0.753-0.501
		c-0.68-0.68-0.844-1.678-0.495-2.513l-3.401-3.402l-8.981,8.98c-0.754,0.755-0.754,1.979,0,2.733l13.099,13.098
		c0.754,0.756,1.977,0.756,2.732,0l13.037-13.037C31.189,16.892,31.189,15.668,30.434,14.914z"/>
</g>
</svg>
