<?xml version="1.0" encoding="utf-8"?>
<!-- Generator: Adobe Illustrator 16.0.0, SVG Export Plug-In . SVG Version: 6.00 Build 0)  -->
<!DOCTYPE svg PUBLIC "-//W3C//DTD SVG 1.1//EN" "http://www.w3.org/Graphics/SVG/1.1/DTD/svg11.dtd">
<svg version="1.1" id="Calque_1" xmlns="http://www.w3.org/2000/svg" xmlns:xlink="http://www.w3.org/1999/xlink" x="0px" y="0px"
	 width="32px" height="32px" viewBox="0 0 32 32" enable-background="new 0 0 32 32" xml:space="preserve">
<g id="icomoon-ignore">
</g>
<path fill="#FFFFFF" d="M12,6h4v2h-4V6z M18,6h4v2h-4V6z M28,6v8h-6v-2h4V8h-2V6H28z M10,12h4v2h-4V12z M16,12h4v2h-4V12z M6,8v4h2
	v2H4V6h6v2H6z M12,18h4v2h-4V18z M18,18h4v2h-4V18z M28,18v8h-6v-2h4v-4h-2v-2H28z M10,24h4v2h-4V24z M16,24h4v2h-4V24z M6,20v4h2v2
	H4v-8h6v2H6z M30,2H2v28h28V2z M32,0L32,0v32H0V0H32z"/>
</svg>
