<?xml version="1.0" encoding="utf-8"?>
<!-- Generator: Adobe Illustrator 16.0.0, SVG Export Plug-In . SVG Version: 6.00 Build 0)  -->
<!DOCTYPE svg PUBLIC "-//W3C//DTD SVG 1.1//EN" "http://www.w3.org/Graphics/SVG/1.1/DTD/svg11.dtd">
<svg version="1.1" id="Calque_1" xmlns="http://www.w3.org/2000/svg" xmlns:xlink="http://www.w3.org/1999/xlink" x="0px" y="0px"
	 width="32px" height="32px" viewBox="0 0 32 32" enable-background="new 0 0 32 32" xml:space="preserve">
<g id="icomoon-ignore">
</g>
<path fill="#FFFFFF" d="M27.312,4.687C24.418,1.791,20.418,0,16,0C9.141,0,3.291,4.316,1.016,10.381l3.746,1.405
	C6.468,7.238,10.856,4,16,4c3.314,0,6.312,1.344,8.484,3.515L20,12h12V0L27.312,4.687z M16,28c-3.314,0-6.313-1.343-8.485-3.516
	L12,20H0v12l4.687-4.688C7.582,30.209,11.581,32,16,32c6.859,0,12.709-4.316,14.984-10.381l-3.746-1.405
	C25.532,24.762,21.145,28,16,28z"/>
</svg>
