<?xml version="1.0" encoding="utf-8"?>
<!-- Generator: Adobe Illustrator 16.0.0, SVG Export Plug-In . SVG Version: 6.00 Build 0)  -->
<!DOCTYPE svg PUBLIC "-//W3C//DTD SVG 1.1//EN" "http://www.w3.org/Graphics/SVG/1.1/DTD/svg11.dtd">
<svg version="1.1" id="Calque_1" xmlns="http://www.w3.org/2000/svg" xmlns:xlink="http://www.w3.org/1999/xlink" x="0px" y="0px"
	 width="32px" height="32px" viewBox="0 0 32 32" enable-background="new 0 0 32 32" xml:space="preserve">
<g id="icomoon-ignore">
</g>
<path fill="#FFFFFF" d="M27,22c-1.411,0-2.686,0.586-3.594,1.525L9.937,16.792C9.978,16.534,10,16.27,10,16.001
	s-0.022-0.534-0.063-0.791l13.469-6.734c0.908,0.94,2.183,1.526,3.594,1.526c2.762,0,5-2.239,5-5c0-2.761-2.238-5-5-5s-5,2.239-5,5
	c0,0.269,0.021,0.534,0.062,0.791L8.594,12.527C7.685,11.587,6.411,11.001,5,11.001c-2.761,0-5,2.239-5,5s2.239,5,5,5
	c1.411,0,2.685-0.586,3.594-1.526l13.469,6.734C22.021,26.467,22,26.73,22,27c0,2.761,2.238,5,5,5s5-2.239,5-5S29.762,22,27,22z"/>
</svg>
