<?xml version="1.0" encoding="utf-8"?>
<!-- Generator: Adobe Illustrator 16.0.0, SVG Export Plug-In . SVG Version: 6.00 Build 0)  -->
<!DOCTYPE svg PUBLIC "-//W3C//DTD SVG 1.1//EN" "http://www.w3.org/Graphics/SVG/1.1/DTD/svg11.dtd">
<svg version="1.1" id="Calque_1" xmlns="http://www.w3.org/2000/svg" xmlns:xlink="http://www.w3.org/1999/xlink" x="0px" y="0px"
	 width="32px" height="32px" viewBox="0 0 32 32" enable-background="new 0 0 32 32" xml:space="preserve">
<g id="icomoon-ignore">
</g>
<path fill="#FFFFFF" d="M32,8l-8-8v6c-4.087,0-7.211,0.975-9.552,2.982c-0.164,0.141-0.321,0.284-0.474,0.43
	c0.86,1.193,1.522,2.422,2.118,3.597c1.51-1.825,3.689-3.008,7.907-3.008v12c-6.765,0-8.285-3.043-10.211-6.894
	c-1.072-2.144-2.181-4.361-4.237-6.124C7.21,6.977,4.086,6.001-0.001,6.001v4c6.764,0,8.285,3.043,10.211,6.894
	c1.072,2.145,2.181,4.361,4.237,6.125c2.341,2.006,5.465,2.981,9.552,2.981v6l8-8l-8-8L32,8L32,8z M0,22v4
	c4.087,0,7.211-0.975,9.552-2.982c0.164-0.141,0.321-0.283,0.474-0.43c-0.86-1.193-1.522-2.422-2.118-3.597
	C6.398,20.816,4.219,22,0,22L0,22z"/>
</svg>
